<?xml version="1.0" encoding="UTF-8"?><svg id="Calque_1" xmlns="http://www.w3.org/2000/svg" viewBox="0 0 80 80"><defs><style>.cls-1{fill:#2c2c2c;}</style></defs><path class="cls-1" d="M22.43833,46.03238h6.3786v23.58916c0,1.04874,.84862,1.8999,1.8999,1.8999l10.15053,.00253c1.05128,0,1.8999-.85369,1.8999-1.8999v-23.58916h6.04675c.95755,0,1.76564-.71436,1.8847-1.66431l1.26153-10.1328c.14186-1.12981-.74223-2.13549-1.8847-2.13549h-7.30828c.28625-6.25954-1.10194-8.11131,2.96891-8.11131,2.75612-.32932,7.1031,1.06648,7.1031-1.8999V13.02985c0-.94995-.7017-1.75297-1.64152-1.88217-.79542-.10893-3.93913-.42051-7.83772-.42051-17.75773,0-14.10232,19.68803-14.54057,21.37261h-6.38113c-1.04874,0-1.8999,.85116-1.8999,1.8999v10.1328c0,1.04874,.85116,1.8999,1.8999,1.8999h0Zm1.8999-10.13027h6.3786c1.04874,0,1.8999-.85116,1.8999-1.8999v-7.98211c0-7.30322,3.91379-11.49059,10.74077-11.49059,2.22415,0,4.27098,.10893,5.67944,.22039v5.44385c-1.01835,.51931-10.072-2.23935-10.072,6.83204v6.97897c0,1.04874,.85116,1.8999,1.8999,1.8999h7.05749l-.79036,6.333h-6.26714c-1.04874,0-1.8999,.85116-1.8999,1.8999v23.58663h-6.34567v-23.58916c0-1.04874-.85116-1.8999-1.8999-1.8999h-6.38113v-6.333Z"/></svg>