<?xml version="1.0" encoding="UTF-8"?><svg id="Calque_1" xmlns="http://www.w3.org/2000/svg" viewBox="0 0 80 80"><defs><style>.cls-1,.cls-2{fill:#2c2c2c;}.cls-2{fill-rule:evenodd;}</style></defs><path class="cls-2" d="M40.92055,31.62608c-5.24643,0-9.4995,4.25307-9.4995,9.4995s4.25307,9.4995,9.4995,9.4995,9.4995-4.25299,9.4995-9.4995-4.25299-9.4995-9.4995-9.4995Zm-5.6997,9.4995c0-3.14775,2.55195-5.6997,5.6997-5.6997s5.6997,2.55195,5.6997,5.6997-2.55195,5.6997-5.6997,5.6997-5.6997-2.55195-5.6997-5.6997Z"/><path class="cls-2" d="M52.22748,16.74031c-2.89317-.31346-6.53996-.31346-11.19244-.31343h-.229c-4.65248-.00003-8.29924-.00003-11.19249,.31343-2.95255,.31989-5.34485,.98438-7.38742,2.4684-1.23658,.89842-2.32403,1.98588-3.22246,3.22246-1.48402,2.04257-2.14851,4.43487-2.4684,7.38742-.31346,2.89324-.31346,6.54001-.31343,11.19249v.229c-.00003,4.65248-.00003,8.29927,.31343,11.19244,.31989,2.9527,.98438,5.3448,2.4684,7.38757,.89842,1.23646,1.98588,2.32396,3.22246,3.22223,2.04257,1.4842,4.43487,2.14866,7.38742,2.46861,2.89319,.31335,6.54001,.31335,11.19224,.31335h.22951c4.65222,0,8.29902,0,11.19219-.31335,2.9527-.31995,5.3448-.9844,7.38757-2.46861,1.23646-.89828,2.32396-1.98577,3.22223-3.22223,1.4842-2.04277,2.14866-4.43487,2.46861-7.38757,.31335-2.89317,.31335-6.53996,.31335-11.19218v-.22951c0-4.65222,0-8.29904-.31335-11.19224-.31995-2.95255-.9844-5.34485-2.46861-7.38742-.89828-1.23658-1.98577-2.32403-3.22223-3.22246-2.04277-1.48402-4.43487-2.14851-7.38757-2.4684h0Zm-27.7679,5.54252c1.28689-.93498,2.934-1.47997,5.56324-1.76483,2.6648-.28871,6.10592-.29132,10.89773-.29132s8.2329,.00261,10.89782,.29132c2.62921,.28486,4.2763,.82985,5.56316,1.76483,.91398,.66405,1.71776,1.46781,2.38172,2.38179,.93501,1.28689,1.4799,2.934,1.76488,5.56324,.28879,2.6648,.29132,6.10592,.29132,10.89773s-.00253,8.2329-.29132,10.89783c-.28498,2.62921-.82988,4.2763-1.76488,5.56316-.66395,.91398-1.46773,1.71776-2.38172,2.38172-1.28686,.93501-2.93395,1.4799-5.56316,1.76488-2.66493,.28879-6.10603,.29132-10.89783,.29132s-8.23292-.00253-10.89773-.29132c-2.62923-.28498-4.27635-.82988-5.56324-1.76488-.91398-.66395-1.71774-1.46773-2.38179-2.38172-.93498-1.28686-1.47997-2.93395-1.76483-5.56316-.28871-2.66493-.29132-6.10603-.29132-10.89783s.00261-8.23292,.29132-10.89773c.28486-2.62923,.82985-4.27635,1.76483-5.56324,.66405-.91398,1.46781-1.71774,2.38179-2.38179h0Z"/><path class="cls-1" d="M51.05335,28.45958c0,1.39906,1.13411,2.5332,2.5332,2.5332s2.5332-1.13414,2.5332-2.5332-1.13411-2.5332-2.5332-2.5332-2.5332,1.13416-2.5332,2.5332Z"/></svg>