<?xml version="1.0" encoding="UTF-8"?><svg id="Calque_1" xmlns="http://www.w3.org/2000/svg" viewBox="0 0 80 80"><defs><style>.cls-1{fill:#2c2c2c;}</style></defs><path class="cls-1" d="M25.68738,27.60397H15.0388c-.99662,0-1.80467,.80805-1.80467,1.80467v36.13586c0,.99662,.80805,1.80467,1.80467,1.80467h10.6487c.99662,0,1.80467-.80805,1.80467-1.80467V29.40864c-.00012-.99662-.80805-1.80467-1.80479-1.80467Zm-1.80455,36.13586h-7.03937V31.21331h7.03937V63.73984Z"/><path class="cls-1" d="M69.6101,33.41601c-3.12035-3.80218-7.50247-5.81191-12.67245-5.81191-2.79927,0-5.27495,.58873-7.39964,1.75503-.02636-.9737-.82384-1.75503-1.80395-1.75503h-10.6487c-.99662,0-1.80467,.80805-1.80467,1.80467v36.13574c0,.99662,.80805,1.80467,1.80467,1.80467h10.6487c.99662,0,1.80467-.80805,1.80467-1.80467v-18.56535c0-2.82159,2.29555-5.11714,5.11702-5.11714s5.11726,2.29555,5.11726,5.11714v18.56535c0,.99662,.80805,1.80467,1.80467,1.80467h10.6487c.99662,0,1.80467-.80805,1.80467-1.80467v-18.56535c-.00012-5.2727-1.57014-10.08966-4.42095-13.56315Zm.8115,30.32383h-7.03937v-16.76068c0-4.81185-3.91474-8.72648-8.7266-8.72648s-8.72636,3.91463-8.72636,8.72648v16.76068h-7.03937V31.21319h7.03937v1.76358c0,.73324,.44363,1.3937,1.1226,1.67084,.67886,.27691,1.45793,.11589,1.97115-.40788,1.96747-2.00819,4.63029-3.02654,7.91451-3.02654,9.31461,0,13.48395,7.91831,13.48395,15.76585v16.7608h.00012Z"/><path class="cls-1" d="M20.36315,8.9016c-3.93089,0-7.12902,3.19801-7.12902,7.1289s3.19813,7.1289,7.12902,7.1289,7.12902-3.19801,7.12902-7.1289c-.00012-3.93089-3.19813-7.1289-7.12902-7.1289Zm0,10.64858c-1.94075,0-3.51968-1.57882-3.51968-3.51968s1.57894-3.51968,3.51968-3.51968,3.51968,1.57894,3.51968,3.51968-1.57905,3.51968-3.51968,3.51968Z"/></svg>